<?xml version="1.0" standalone="no"?><!-- Generator: Gravit.io --><svg xmlns="http://www.w3.org/2000/svg" xmlns:xlink="http://www.w3.org/1999/xlink" style="isolation:isolate" viewBox="0 0 2048 2048" width="2048" height="2048"><defs><clipPath id="_clipPath_oVueKeXgpYAcRHgv5TD02QsOsnqUUfU8"><rect width="2048" height="2048"/></clipPath></defs><g clip-path="url(#_clipPath_oVueKeXgpYAcRHgv5TD02QsOsnqUUfU8)"><circle vector-effect="non-scaling-stroke" cx="1024" cy="1023.9999999999995" r="1024" fill="rgb(255,255,255)"/><clipPath id="_clipPath_TROxf09HyBQ1R7L9XeKQOyr6tuMALHBA"><circle vector-effect="non-scaling-stroke" cx="1024" cy="1023.9999999999995" r="1024" fill="rgb(255,255,255)"/></clipPath><g clip-path="url(#_clipPath_TROxf09HyBQ1R7L9XeKQOyr6tuMALHBA)"><clipPath id="_clipPath_agNDefiWUqCxYfBkTOOlKWGA7Xl5LTdT"><rect x="0" y="0" width="2048" height="2048" transform="matrix(1,0,0,1,0,0)" fill="rgb(255,255,255)"/></clipPath><g clip-path="url(#_clipPath_agNDefiWUqCxYfBkTOOlKWGA7Xl5LTdT)"><g><rect x="0" y="0" width="2048" height="2048" transform="matrix(1,0,0,1,0,0)" fill="rgb(255,87,34)"/><rect x="0" y="0" width="2048" height="2048" transform="matrix(1,0,0,1,0,0)" fill="rgb(255,87,34)"/><g><path d=" M 0 0 L 2048 0 L 2048 2048 L 0 2048 L 0 0 Z " fill="none"/><g filter="url(#BiYnulJXvn949m4ke6XlGYvqPYdzEHMT)"><path d=" M 1633.28 1103.872 C 1636.352 1078.272 1638.4 1051.648 1638.4 1024 C 1638.4 996.352 1636.352 969.728 1632.256 944.128 L 1805.312 808.96 C 1820.672 796.672 1824.768 774.144 1815.552 756.736 L 1651.712 473.088 C 1641.472 454.656 1619.968 448.512 1601.536 454.656 L 1397.76 536.576 C 1354.752 503.808 1309.696 477.184 1259.52 456.704 L 1228.8 239.616 C 1225.728 219.136 1208.32 204.8 1187.84 204.8 L 860.16 204.8 C 839.68 204.8 823.296 219.136 820.224 239.616 L 789.504 456.704 C 739.328 477.184 693.248 504.832 651.264 536.576 L 447.488 454.656 C 429.056 447.488 407.552 454.656 397.312 473.088 L 233.472 756.736 C 223.232 775.168 227.328 796.672 243.712 808.96 L 416.768 944.128 C 412.672 969.728 409.6 997.376 409.6 1024 C 409.6 1050.624 411.648 1078.272 415.744 1103.872 L 242.688 1239.04 C 227.328 1251.328 223.232 1273.856 232.448 1291.264 L 396.288 1574.912 C 406.528 1593.344 428.032 1599.488 446.464 1593.344 L 650.24 1511.424 C 693.248 1544.192 738.304 1570.816 788.48 1591.296 L 819.2 1808.384 C 823.296 1828.864 839.68 1843.2 860.16 1843.2 L 1187.84 1843.2 C 1208.32 1843.2 1225.728 1828.864 1227.776 1808.384 L 1258.496 1591.296 C 1308.672 1570.816 1354.752 1543.168 1396.736 1511.424 L 1600.512 1593.344 C 1618.944 1600.512 1640.448 1593.344 1650.688 1574.912 L 1814.528 1291.264 C 1824.768 1272.832 1820.672 1251.328 1804.288 1239.04 L 1633.28 1103.872 Z  M 1024 1331.2 C 855.04 1331.2 716.8 1192.96 716.8 1024 C 716.8 855.04 855.04 716.8 1024 716.8 C 1192.96 716.8 1331.2 855.04 1331.2 1024 C 1331.2 1192.96 1192.96 1331.2 1024 1331.2 Z " fill="rgb(255,255,255)"/></g><defs><filter id="BiYnulJXvn949m4ke6XlGYvqPYdzEHMT" x="-200%" y="-200%" width="400%" height="400%" filterUnits="objectBoundingBox" color-interpolation-filters="sRGB"><feGaussianBlur xmlns="http://www.w3.org/2000/svg" in="SourceGraphic" stdDeviation="85.87218125678056"/><feOffset xmlns="http://www.w3.org/2000/svg" dx="50" dy="50" result="pf_100_offsetBlur"/><feFlood xmlns="http://www.w3.org/2000/svg" flood-color="#000000" flood-opacity="0.2"/><feComposite xmlns="http://www.w3.org/2000/svg" in2="pf_100_offsetBlur" operator="in" result="pf_100_dropShadow"/><feBlend xmlns="http://www.w3.org/2000/svg" in="SourceGraphic" in2="pf_100_dropShadow" mode="normal"/></filter></defs></g><g filter="url(#RV05khZaBPZqFWJQoKK2OUpkWBJpIwLQ)"><circle vector-effect="non-scaling-stroke" cx="1024" cy="1023.9999999999995" r="175.00000000000006" fill="rgb(255,255,255)"/></g><defs><filter id="RV05khZaBPZqFWJQoKK2OUpkWBJpIwLQ" x="-200%" y="-200%" width="400%" height="400%" filterUnits="objectBoundingBox" color-interpolation-filters="sRGB"><feGaussianBlur xmlns="http://www.w3.org/2000/svg" in="SourceGraphic" stdDeviation="85.87218125678056"/><feOffset xmlns="http://www.w3.org/2000/svg" dx="50" dy="50" result="pf_100_offsetBlur"/><feFlood xmlns="http://www.w3.org/2000/svg" flood-color="#000000" flood-opacity="0.2"/><feComposite xmlns="http://www.w3.org/2000/svg" in2="pf_100_offsetBlur" operator="in" result="pf_100_dropShadow"/><feBlend xmlns="http://www.w3.org/2000/svg" in="SourceGraphic" in2="pf_100_dropShadow" mode="normal"/></filter></defs><circle vector-effect="non-scaling-stroke" cx="3517" cy="1111" r="1024" fill="rgb(195,207,217)"/></g></g></g></g></svg>